<?xml version="1.0" encoding="UTF-8"?>
<svg version="1.1" viewBox="0 0 1024 1024" width="1280" height="1280" xmlns="http://www.w3.org/2000/svg">
<path transform="translate(0)" d="m0 0h1024v1024h-1024z" fill="#C1CECF"/>
<path transform="translate(488,179)" d="m0 0h46l21 2 18 3 30 8 26 10 21 10 17 10 17 12 16 13 9 9 8 7 4 4v2h2l9 11 15 20 12 20 9 17 10 24 7 21 6 24 3 18 1 13v43l-1 15-5 27-4 14-2 8-5 15-6 15-8 17-11 19-13 19-10 12-6 8-12 12-1 2h-2v2h-2v2l-4 1-1 3-4 3h-2v2l-11 8-12 9-7 4h-2v2l-16 9-16 8-9 4-22 8-21 6-16 4-20 3-11 1h-34l-25-3-23-4-25-7-28-11-6-4-7-3-18-10-18-13-9-7-15-13-17-17-7-8-9-11-10-14-13-21-8-16-8-19-8-24-7-30-3-21-1-13v-26l2-23 4-24 4-17 9-27 9-21 11-20 11-18 9-12 11-14 23-23 10-8 12-9 15-10 18-10 23-11 24-9 23-6 25-5z" fill="#192333"/>
<path transform="translate(496,208)" d="m0 0h31l33 3 24 6 28 10 19 9 14 8 11 7 5 4 10 6 5 5 16 15 8 8 7 8v2h2l7 11 7 10 8 14 5 9 5 8 2 10 4 9v2h2l3 12 2 5v14l-1-3-9 3-6-1-9-7-13-13-2-6h-2l-4-6v-2l-4-1-3-5v-2l-4-2-5-5-2-1-4-3 3 7 8 17 5 17 2 18v16l-3 18-7 19-8 13-9 11-12 12-10 7-9 5h-2l10 19 8 12 6 11 15 28 15 27 8 16-1 5-8 6-7 8-15 15-10 7-3-3-12-23-12-22-11-19-8-16-14-27-10-19-12-23-10-19-8-15-12-18 2-1h21l22-1 9-2 13-7 3-1v-2l5-4 6-9 4-12v-21l-4-12-6-8-8-7-13-6-14-3-41-1-7-1 1 11v46l-3 7-1 2-4-1-7-11-7-13-12-21-7-13-8-13-10-18 1-7-4-1 1-5-3 1-8-3h-5l-4 4-2-1-1 2-2-1 1 7 8 16 8 14 8 16 9 15 18 34 15 28 12 22 10 18 12 22 15 28 10 19 12 22 7 16 5 8v5h-42l-9-5-12-14-7-8-5-5-6-8-9-15-13-25-11-19-12-23-9-15-14-23-10-16-4-8v-3h-2l-1 4-7 13-10 18-9 15-9 16-14 24-10 17-6 11-10 18-9 15-13 23-15 30h-2l-6-9-9-10-9-13-9-15-4-10 12-22 8-14v-2h-5l1-6 5-1 1 1 1-4-10-4-2-3-1-5-7-2v-2l-5-1-3-2-4-7-2-2v-4h-2l-2-7-5-17-2-16h-1l-1-21h1v-7l-1-6v-1l2-1 1-21 4-17 8-22 9-19 5-9 8-13 8-12 8-11 9-10 7-8 11-10 19-14 10-7 13-8 22-11 21-8 22-6 30-5z" fill="#337AA0"/>
<path transform="translate(505,299)" d="m0 0h98l16 3 15 5 14 7 11 7 13 11 13 17 10 19 6 18 2 11 1 11v16l-3 18-7 19-8 13-9 11-12 12-10 7-9 5h-2l10 19 8 12 6 11 15 28 15 27 8 16-1 5-8 6-7 8-15 15-10 7-3-3-12-23-12-22-11-19-8-16-14-27-10-19-12-23-10-19-8-15-12-18 2-1h21l22-1 9-2 13-7 3-1v-2l5-4 6-9 4-12v-21l-4-12-6-8-8-7-13-6-14-3-41-1-7-1 1 11v46l-3 7-1 2-4-1-7-11-7-13-12-21-7-13-8-13-10-18v-5l5-8z" fill="#F6F8F5"/>
<path transform="translate(446,304)" d="m0 0h1l2 7 8 13 9 20 11 19 8 16 9 15 18 34 15 28 12 22 10 18 12 22 15 28 10 19 12 22 7 16 5 8v5h-42l-9-5-12-14-7-8-5-5-6-8-9-15-13-25-11-19-12-23-9-15-14-23-10-16-4-8v-3h-2l-1 4-7 13-10 18-9 15-9 16-14 24-10 17-6 11-10 18-9 15-13 23-15 30h-2l-6-9-9-10-9-13-9-15-4-10 12-22 9-16 10-18 13-23 8-14 9-17 5-8 9-16 12-21 10-18 7-12 6-12 9-15 10-18 7-11 7-14 5-8 4-8z" fill="#F6F8F5"/>
<path transform="translate(445,429)" d="m0 0h2l8 16 13 21 9 15 11 19 12 23 6 10 15 28 12 20 5 6 8 7 14 17 3 3-3 3-9 1-33-1-6 1h-47l3 2-5 1v1l-19 1v2l4 1 1 3-5 2-9 1-3 1h-22l-2 2v1l-5 1 217 2 2 1v2l4 1 6 8 3 11-1 1-23 2h-35l-205 1-9-4-10-7-3-5 1-7 6-8 3-6 9-3-1-2 5-1-4-2 4-1-1-2-6-1v2l3 1h-7l1-2-2-1-1 2v-2h-2l-3-5 1-4 4-5 1-4-1-3 1-8h2v-2l4-3v-4h-2l1-4-2-2 13-22 7-12 6-11 28-49 14-24 6-11 7-12z" fill="#1E394F"/>
<path transform="translate(528,213)" d="m0 0h8l5 1 4-1v1l6 1 2 3h9l6 2 8 1v2h8l8 4v2l7 1 13 5 4 2v2h7l10 6 3 2v2l6 2v4l6 1v3h2v6l-9 3-19-1-13 2-2-1h-22l-4 1-1 3-9 1-5 2v2l-2 2-1 5-3 1-1 4 2 3v3l-2 1-30 1 63 1v1h-87l-2 6-13 25-2 1-4-2 1-5-3 1-8-3h-5l-4 4-2-1-1 2-2-1-2 3-7-14-4-6-1-4-8 15-7 12-4 8-6 10-5 9-3-1v3h-2l-1 2h-2l-1-5v-7l-6-2-3 1-7-1-3-4-7-3-5-1-4-3v-2l-2 1 2 4v12l-6 7-6 3h-7l-7-4-4-5-3-7 2 15h-5l-4 6-9 4-8 3-3 4-11 5h-6l-1-8 1-11 3-7 2-7 3-5 4-12h2l2-6 9-11 2-5h2l2-7 4-7 2-2 3-1v-3l8-7 4-5h3l2-4 6-5 2-3 5-5 5-1 9-6 5-5 10-3 3-3 9-4h2v-3l10-3 5-3v-1l10-3 11-4 15-3 17-4 15-2 2-1 27 1v-1z" fill="#3C94B8"/>
<path transform="translate(488,179)" d="m0 0h46l21 2 18 3 30 8 26 10 21 10 17 10 17 12 16 13 9 9 8 7 4 4v2l2 1v3l2 4-3 3h-14l-1-3-2 1-2 6h-2v2h-2l-1 2-15-15-11-9-1-3-4-1-3-3-7-4-5-4-7-4-22-12-19-8-23-8-21-5-33-3h-31l-24 3-24 5-16 5-19 7-26 13-15 10-16 12-14 11-8 9h-2l-2 4-9 10-14 21-8 13-8 16-8 17-7 21-3 13-1 19-1 6-1 1 1 3v8l-1 4 1 10h1l1 16 4 17 3 7v6h2l2 5 4 5 1 3 7 3v2l7 1 4 9 10 3-2 7-2-1-4-1 1 5h4l-1 4-8 15-10 19-5-2-1 2-1-3v-2l-2-10h-2l-4-11-3-9-4-15-5-21-3-24-1-14-7-1-5-1-6-2-7-1-1 8h-1l-1-8 1-5-1-6-1 23h-1v-26l2-23 4-24 4-17 9-27 9-21 11-20 11-18 9-12 11-14 23-23 10-8 12-9 15-10 18-10 23-11 24-9 23-6 25-5z" fill="#1F3B52"/>
<path transform="translate(762,321)" d="m0 0 2 2 3 6 7 9 4 2 3 8 1 3 2 1 1 2 3 4 1 5 3 1 4 9 5 18 3 7 3 11 3 7 1 8h2l2 4 1 8 3 13 3 23-1 9-1 5 1 3-1 7v8l-1 6-1 13-3 13-2 10-4 15-4 7-2 12-2 7-4 2-2 7-2 1-3 12-4 5h-2l-1 5-2 3h-2l-2 9-6 5-6 13-5 5-4 5-3 2-1 3h-3l-2 6-5 5-4 2-7 8h-3v3l-10 7-5 5h-4v3l-5 1-1 4-6 5-5 3-2 2-9 3-4 4-5 2-5 4-6 2-7 1-1 4-17 5-9 2-3 1v2l-8 1v2l-5 1-11 2h-8l-6 2-15 1-3-1v2l-16 2h-22l-4-1-14-1-19-5-10-1-6-2-15-3-3-2v-2l-3 1-18-6-4-3-2-1-7 1 2-3h-3l-5-2-1-2h-6l-2-4 1-2 10 3 22 7 18 4 28 4 10 1h34l17-2 18-3 27-7 15-5 9-4 11-4 16-8 13-7 5-2v-2l12-7 10-8 8-6h2v-2l6-4 3-3h2v-2h2v-2h2l2-4 13-13 8-11 10-13 11-17 9-16 10-22 6-17 3-8 4-17 6-30 1-15v-43l-1-13-4-23-6-22-8-23-8-19-6-11z" fill="#A5B6BF"/>
<path transform="translate(686,349)" d="m0 0 5 2 13 13v3l4 1 4 6v2h2l5 8 13 13 8 5 6-1 7-1 1-8 2 3 4 17 3 25v47l-1 12-5 24-5 18-6 19h-2l-2 9-1 3h-2v3l-35-1-16-2-9-5-3-1v-1l-2 2-11-20-12-20-7-13v-2l16-9 13-12 10-11 9-14 6-15 3-11 2-13v-16l-2-18-5-17-9-19z" fill="#1F3A50"/>
<path transform="translate(469,321)" d="m0 0 8 1 6 2h2v4l2 1 1 3 1 7 9 16 9 15 12 22 11 19 6 11 3 4 3 1 3-9v-57l48 1 14 3 16 8 9 9 5 10 2 7v21l-4 12-8 11-4 2v2l-14 8-5 2-6 1-22 1h-22l10 15 9 16 10 20 12 22 3 7-3 3-2-2v-3l-4-1v-2l-4-1-4-4-3-7h-7l-4-3-1-3-2-1-1-2-4-4-3-8v-2l-3 1-1-3-2-1-1 2-9-17-12-22-13-24-15-28-12-22-8-14-10-19-6-10-5-11 1-7 2 2 5-3z" fill="#244B68"/>
<path transform="translate(458,458)" d="m0 0 3 2 1 1 1 3h4l17 29 18 33 10 18 14 26 8 12 4 5 8 7 14 17 3 3-3 3-9 1-26-1v-1l28-3 1-3-6-2-2-3v-3l-6-1-2-2 1-2-5-2-3-4-67-1v-1l8-1h6v-1l7-1v-1l5-1-3-8 1-3-8-2 1-5 10-2-14 1-19 3h-61l2-6 8-14 6-10 12-22 14-24 6-11h3l1-11 2-4 3-7z" fill="#244A66"/>
<path transform="translate(338,278)" d="m0 0v3l-3 6-3 2h-2l1 3-3 1v2h-2l-1 3-4 1-3 9-2 3h-2l-1 4-4 8-4 5-1 2h-2l-3 11-1 2h-2l-2 12h-2l-1 5-2 2-1 5v1l-1 6-2 2-1 4h-2l-1 21-1 7 1 23h2l3 10 2 6 5 3 5-2h4l1-3h9l5-5v-3h2l2-4 6-2 7-2 4-2 13-1 4 1h9v-2l7-4v8h2l3-4 3-2-2 5-14 25-7 12-4 6-7 14-14 24-8 15-8 14h-7l1-6 5-1 1 1 1-4-10-4-2-3-1-5-7-2v-2l-5-1-3-2-4-7-2-2v-4h-2l-2-7-5-17-2-16h-1l-1-21h1v-7l-1-6v-1l2-1 1-21 4-17 8-22 9-19 5-9 8-13 8-12 8-11 9-10z" fill="#2F6587"/>
<path transform="translate(686,349)" d="m0 0 5 2 13 13v3l4 1 4 6v2h2l5 8 13 13 8 5 6-1 7-1 1-8 2 3 4 17 3 25v47l-1 12-1 3h-2l-1 9-3 16-3 2-1 3-5 1v3l-4-2-5-4-2-4-3-1-15-1-2-1-3-7-2-4h2v-2h-2l3-19 1-16 1-8v-8l-4-21v-5l-2-4-3-1-1-22-2-6h-1l-3-15-6-16-7-13z" fill="#234A67"/>
<path transform="translate(450,638)" d="m0 0h46l124 1 2 1v2l4 1 6 8 3 11-1 1-23 2h-239l2-10 3-1 1-6 3-4 9-3v-2z" fill="#2F6588"/>
<path transform="translate(577,216)" d="m0 0 7 1 28 10 19 9 14 8 11 7 5 4 10 6 5 5 16 15 8 8 7 8v2h2l7 11 7 10 8 14 5 9 5 8 2 10 4 9v2h2l3 12 2 5v14l-1-3-9 3-6-1-9-7-13-13-2-6h-2l-4-6v-2l-4-1-3-5v-2l-4-2-5-5-2-1-4-3-1 2-10-14-7-8-15-11-8-5-16-7-5-2 4-3h-5l-1-4 8-1 2-4 1-1h7l2 1h8l13 3 5-2h8l5 3 1 1h6l-2-6-2-4h-1v-8h-2v-2l-4-1-10-9-10-8v-2l-7-2v-2h-2v-2l-3-1v-2l-7-1v-2l-10-6-4-2-6-1-3-4v-2l-7 1-10-3-3-3-11-4-4-2z" fill="#337AA0"/>
<path transform="translate(276,359)" d="m0 0 3 1v7l-4 9v9l-2 4-1 29-1 6-1 1 1 3v8l-1 4 1 10h1l1 16 4 17 3 7v6h2l2 5 4 5 1 3 7 3v2l7 1 4 9 10 3-2 7-2-1-4-1 1 5h4l-1 4-8 15-10 19-5-2-1 2-1-3v-2l-2-10h-2l-4-11-3-9-4-15-5-21-3-24-1-14-7-1-5-1-6-2-7-1-1 8h-1l-1-8 1-5-1-6-1 23h-1v-26l2-23 4-24 4-17 3-10 4-3 2 1 2-4 1 2h12l3-1v-6z" fill="#223345"/>
<path transform="translate(496,208)" d="m0 0h31l33 3 16 4 5 3 3 2 11 4 3 3 12 3h5l3 5 7 1v2l5 1 9 6 2 2 4 1 3 3v2h2v2l7 2v2l4 2 4 3v2l4 2 9 8 3 1v2h2l1 7 1 2 2 1v2l2 6-1 1h-6l-3-3-3-1h-8l-5 2-15-3h-8l-2-1h-5l-2 4v1h-5l-2 1-2-1v2l6 2-1 2-5 1-12-3-18-2-64-1 1-2 32-1-3-6 1-3 4-3 1-4-2-1 4-1v-2l5-3 9-1 1-2 4-2h22l5 1 11-2 18 1 8-2 1-6h-2v-3h-6l-1-5-5-2v-2l-4-2-9-5-7-1v-2l-6-2-14-5-4-1v-2l-5-1-3-2-8-1v-2h-8l-7-2h-8l-2-4h-7-2l-6-1h-8l-5 1v1l-31-1-5 2-15 2-22 5-9 2-17 6-2 2-10 4h-4v3l-11 5-2-1 5-8 18-8 7-3 2-2 12-3h9l5-3 13-3 1-2h5v2l14-3-2-2 2-1z" fill="#3E84A8"/>
<path transform="translate(480,222)" d="m0 0h35l13 2v2h14l4 3-1 3-26 4-7 2-8 1-1 3-3 1h-5l-3 3-8 1-4 3-4 1-14 1-6 2-1 3-3 1-3 3-8 3-3 5-10 2h-7v4l-8 2-1 1-7 1-2 2-11 1-9 8-7 4-10 1-9 3-6 6-5-1-3-3v-3l-2-1 4-2 2-4 6-7 6-5 5-5 3-1 1-2 10-6v-2l6-1v-2l6-3h2v-2l7-2v-2h4v-2h3l1-3 9-1v-2l14-6 10-5 8-2 11-1 15-3 6-1z" fill="#60A8C3"/>
<path transform="translate(488,179)" d="m0 0h46v1l-6 1 13 3h2 7l4-1 5 2v2l5 2v2l-18-1-1-3-9 4-1 1-7 1h-21l-2 1h-10l-9 3-16 1-12 3-9 3-5 5-5-1-6 4-10 2-4 4-9 1-10 5-2-1-1 3-5 3-9 3-5 3-8 3-1 2h2v2h-6l-5 2-2 4h-2l-1 3-3 2-1 3-4 2-13-1 1 3 2 5-8 7-10 3-3 2h-4v2l-7 6-2 5-4-1-2-3v-1l2-5 1 3h2l-1-5 4-4h2l1-4 5-5 4-2 2-2-1-2h2l1-3h2v-2h2v-2l5-2 2-6 14-11 12-8 13-8 23-12 11-5 24-9 23-6 25-5z" fill="#244A67"/>
<path transform="translate(395,590)" d="m0 0h136l6 6 2 1 1 3 6 2 2 6h5l2 3-2 3-20 2h-163l2-2 3-7 3-1v-2h2l2-6 3-6z" fill="#3F7190"/>
<path transform="translate(445,481)" d="m0 0h3l5 11 15 27 6 9 12 19 5 9-1 5-18 5-14 2h-61l2-6 8-14 6-10 12-22 14-24z" fill="#F5F7F4"/>
<path transform="translate(564,367)" d="m0 0h12l9 1 8 4 12 4 8 3 1 2 11 2 1-2 2 2 1 8 4-2 2 5 2 4 1 10-2 12h-2v7h-1l-2-9 1-5h-2l-1-2-4 6-9-2v-2l-13 2-4-3h-5l-3 7-1 1h-12l-6-2-8-3-4-4v-3h-2l-3-11-5-3v-8l-1-3h2l-1-7 7-2 1-4 2-2z" fill="#2E6487"/>
<path transform="translate(644,211)" d="m0 0 6 1 17 10 17 12 16 13 9 9 8 7 4 4v2l2 1v3l2 4-3 3h-14l-1-3-2 1-2 6h-2v2h-2l-1 2-15-15-11-9-1-3-4-1-3-3-7-4-5-4-7-4-22-12-15-7-1-3-2-1-2-3 5-1-2-1 3-1 3 1 30-1z" fill="#213244"/>
<path transform="translate(662,323)" d="m0 0 4 1 4 4h12l4 2v2h5l4 3 4 1v2l4 1 9 4 7 1 3-4 2-2 7-2 8 11 3 6 1 8 4 9v2h2l3 12 2 5v14l-1-3-9 3-6-1-9-7-13-13-2-6h-2l-4-6v-2l-4-1-3-5v-2l-4-2-5-5-2-1-4-3-1 2-10-14-7-8-6-5z" fill="#2E6487"/>
<path transform="translate(469,321)" d="m0 0 8 1 6 2h2v4l2 1 1 3 1 7 9 16 9 15 12 22 11 19 6 11 5 5-1 2-6 4-7-4-11-7-5-4v-7l-3 1-1-3-4-2-3-3-1-5-2 2-20-35-7-14-6-10-5-11 1-7 2 2 5-3z" fill="#337A9F"/>
<path transform="translate(271,400)" d="m0 0h1v18l-1 6-1 1 1 3v8l-1 4 1 10h1l1 16 4 17 3 7v6h2l2 5 4 5 1 3 7 3v2l7 1 4 9 10 3-2 7-2-1-4-1 1 5h4l-1 4-8 15-10 19-5-2-1 2-1-3v-2l-2-10h-2l-4-11-3-9-4-15-5-21-3-24v-37l3-27z" fill="#244A67"/>
<path transform="translate(491,563)" d="m0 0 3 1-13 3-1 4 9 1-1 8 2 1v2l2 2-2 2-10 1v1h-10l-6 1-69 1-10 2-2 5v3l-3 3h-2v2l-4 4-2 5-4 1 2-8 14-20h2l2-6 4-4 2-7h2v-3l2-1h60l19-3z" fill="#1E3A50"/>
<path transform="translate(303,341)" d="m0 0h1l-1 7-3 5-4 12-1 19 9-2 5-3h3l2-4 5-3 4-1 9-4 4-6 5 1-3-15 1-5h1l2 10 2 6 4 9h-2l3 6 11 3v3l8 1-1 3-14 3-9 1-5 3h-2v2l-7 4-3 2-3 5-10 1-5 4-5 2-1 5-5 6-7 3-4-5-1-2v-31l4-14 4-15h2l2-8 3-5h2z" fill="#3E84A8"/>
<path transform="translate(376,617)" d="m0 0h26l18 2h7l4-1 3 1h23l8-1 3 2-5 1v1l-19 1v2l4 1 1 3-5 2-9 1-3 1h-22l-2 2v1l-5 1 47 1v1l-58 1-2 2-10 4-3 8-3 3-2 8h18v1h-19l-9-4-10-7-3-5 1-7 6-8 3-6 9-3-1-2 5-1-4-2 4-1-1-2z" fill="#213143"/>
<path transform="translate(279,402)" d="m0 0h1v14l1 15h2l3 10 2 6 5 3 5-2h4l1-3h9l5-5v-3h2l2-4 6-2 7-2 4-2 13-1 4 1h9v-2l7-4v8h2l3-4 3-2-2 5-11 20-2-1-2 5h-2v2l-4-1v-9-2l-3-1v-2h-2v-2l-7 3-6 3 1 4h-2v3l-7 6h-6l-2 4-3 3v-2l-7 2-5 5-3 4-7 1-7-1-4-3-3-9h-2l-2-8-1-3-2-23 2-23z" fill="#3F7291"/>
<path transform="translate(535,792)" d="m0 0h29l8 5 4 5 1 2v8l-3 7-5 5v3l10 13v1l-14 1-7-10-2-5h-9v15l-12-1z" fill="#091529"/>
<path transform="translate(318,792)" d="m0 0h23l9 3 7 6 2 4v9l-4 7-5 5 11 14v2l-14 1-10-15h-8l1 14-12-1z" fill="#0A162A"/>
<path transform="translate(460,791)" d="m0 0 7 1 25 25v2h2l-1-2v-26l11 1 1 49h-9l-8-8-7-8-9-9-1 25h-12v-44z" fill="#081226"/>
<path transform="translate(686,475)" d="m0 0 2 1-1 2v2l3 1-1 4h-2l1 2v6l-4 5-4 9-3 28-2 7h-2v2l-3 2v4h-4l-7-13-8-13-7-13v-2l16-9 13-12 11-12z" fill="#192435"/>
<path transform="translate(748,541)" d="m0 0h1v7l-3 9h-2l-2 9-1 3h-2v3h-11l-5-1-17-1-6-1v-2l-6-2-5-8-3-10 4-3 50-1 5-1z" fill="#234A67"/>
<path transform="translate(264,791)" d="m0 0h8l13 27 9 20v3l-13 1-3-9-21 2-3 6h-13l5-12 11-24z" fill="#0A162A"/>
<path transform="translate(622,791)" d="m0 0h9l12 27 9 19 1 4h-14l-3-7h-20l-3 7h-13l4-10 13-30z" fill="#0A162A"/>
<path transform="translate(386,791)" d="m0 0h12l1 32 5 5 7 1 5-3 2-3 1-32h13l-1 33-4 9-5 5-9 4h-11l-6-3-7-7-3-8z" fill="#0B172B"/>
<path transform="translate(735,790)" d="m0 0 13 1 1 31 4 5 2 1h8l4-4 1-2 1-32 12 1v34l-4 8-8 7-8 2-10-1-8-5-5-7-2-7z" fill="#081428"/>
<path transform="translate(503,367)" d="m0 0 3 1 13 24 11 19 6 11 5 5-1 2-6 4-7-4-11-7-5-4v-7l-3 1-1-3-4-2-3-3-1-5-2 2-12-21-3-5 1-4 2 2h3l5 1 3 3 8 2v-2l2-2-2-1z" fill="#2E6486"/>
<path transform="translate(550,496)" d="m0 0 3 1 1 2h2l4 10v2l5 1 1 3 2 4 3 2h7l5 10 6 3v2l4 1 3 3h3l15 29-2 3-2-1-1 2-5-1-8-8-3-2v-2l-3 1-1 1-4 3-15-29-12-22-8-14z" fill="#1F3A50"/>
<path transform="translate(369,336)" d="m0 0h3l4 4 5 1 8 4 2 3 8 1 3-1 6 3v10l3-1 2-3h2l-1 5-9 16-6 10h-2l-1 2v-2l-3-1-1-2 1-3-16-1-2-4 3-11 3-9-1-7-8-1-2-10z" fill="#3F85A8"/>
<path transform="translate(694,789)" d="m0 0h1l1 36-5 5-6-1-4-3-5 2-3 5-1 4-2-3-2-8-2-6v-14l7-6 2-4 9-5h8z" fill="#E3EAED"/>
<path transform="translate(695,458)" d="m0 0h1v5l-1 4 1 6v10l-1 9-3 5-5 17h-2l1 14-1 5h-2l-1 12-1 1 1 9 1 7 5 2 10 5-2 1-8-1-9-5-3-1v-1l-2 2-7-14 2-1v-5h4v-2h2l2-19 2-16 5-10 3-4v-8h2v-4l-2 1-2-4 2-2-3-1 7-10z" fill="#213143"/>
<path transform="translate(695,790)" d="m0 0 13 1v34l-3 8-4 5-8 4h-9l-10-5-2-4 5-7 4-1 6 4 6-1 2-3z" fill="#0A162B"/>
<path transform="translate(353,330)" d="m0 0h7l6 3 5 6 1 2v12l-6 7-6 3h-7l-7-4-4-5-2-5v-7l3-6 6-5z" fill="#F4F5F3"/>
<path transform="translate(396,568)" d="m0 0 1 2 6-1 5 1v2l6 1 1 5 9 3 2 1v2l10 2 4 1 16 1v1l-7 1-54 1-10 2-2 5v3l-3 3h-2v2l-4 4-2 5-4 1 2-8 14-20h2l2-6 4-4 2-7h2z" fill="#234A67"/>
<path transform="translate(594,639)" d="m0 0h26l2 1v2l4 1 6 8 3 11-1 1-23 2h-11l-3-7v-6l-1-4 3-7-5-1z" fill="#234A67"/>
<path transform="translate(399,789)" d="m0 0 7 1 7-1h5l1 1v33l-5 6-8 1-6-4-2-3v-33z" fill="#E1E9EB"/>
<path transform="translate(496,208)" d="m0 0h31l25 2v1h-5v2l-5 1-2 1-4-1h-8l-5 1v1l-31-1-5 2-15 2-22 5-9 2-17 6-2 2-10 4h-4v3l-11 5-2-1 5-8 18-8 7-3 2-2 12-3h9l5-3 13-3 1-2h5v2l14-3-2-2 2-1z" fill="#3D83A7"/>
<path transform="translate(478,210)" d="m0 0h6l4 3-16 2v-2l-2 2-17 4-5 3h-9l-12 3-5 4-12 4-4 3-6 1-2 6-4 6-10 3-10 9-5 3h-5l-6 8-7 6-1 2-5 3-7 8h-4v-2l7-4 3-4-1-2h4l1-3h2v-2l3-1-2-2h3v-3h4v-2h-3l2-4 19-14 15-9 22-11 21-8 22-6z" fill="#3E84A8"/>
<path transform="translate(512,590)" d="m0 0h19l6 6 2 1 1 3 6 2 2 6h5l2 3-2 3-20 2h-15l-2-4 2-8 1-12-7-1z" fill="#2E6487"/>
<path transform="translate(371,638)" d="m0 0h79v1l-58 1-2 2-10 4-3 8-3 3-2 8h18v1h-19l-9-4-2-4-4-2-4-6 2-7 9-4z" fill="#234A67"/>
<path transform="translate(297,570)" d="m0 0 4 1v4l6 3 5 10h2l4 10v2h2l3 5 3 7 2 7 3 2 1 12h-2l-6-9-9-10-9-13-9-15-4-10z" fill="#E0E7EA"/>
<path transform="translate(354,264)" d="m0 0 1 2h3v2h-4v5l-4 1v2l-5 5-5 6-3 2h-3l1 6-3 3h-2l-2 6-4 8h-2l-1 5-10 13-2 4h-2l-1 6-3 1v3l-3 3-4 10h-2v2h-2v-4h2v-8l2-4h2l1-7 3-6h2l2-5 4-5 4-9h2l2-5 3-7 4-2 1-2h2v-2l2-2v-2h2l1-2 3-4 5-8z" fill="#337AA0"/>
<path transform="translate(713,307)" d="m0 0 5 5 12 20 1 4-3 2h-4l-1 3-5 4-8-2-11-5v-2l-5-1-3-2-5-1 2-2h12l4-2 4-3h7l-1-3-5 1 2-5 5 1z" fill="#3F7191"/>
<path transform="translate(460,791)" d="m0 0h5v4l-1 1 7 3v5l3 1-3 4-1 3 1 6v23h-12v-44z" fill="#091326"/>
<path transform="translate(558,587)" d="m0 0h11l4 4 1 7-2 4-1 7 1 2-2 1v2l-5 1-8-6-9-11-4-6 4 2 3 2-2-4 4-1z" fill="#E2EAEC"/>
<path transform="translate(338,278)" d="m0 0v3l-3 6-3 2h-2l1 3-3 1v2h-2l-1 3-4 1-3 9-2 3h-2l-1 4-4 8-4 5-1 2h-2l-3 11-1 2h-2l-2 12h-2l-1 5-2 2-1 5v1l-1 6-2 2-1 4h-2l-1 21-2-2v-11l-3-3 1-5 7-20 9-19 5-9 8-13 8-12 8-11 9-10z" fill="#376B8C"/>
<path transform="translate(271,512)" d="m0 0 2 3 12 24 3 3 1 6 10 12 2 1-2 6-4 8-5-2-1 2-1-3v-2l-2-10h-2l-4-11-3-9-4-15-2-9z" fill="#1F3A50"/>
<path transform="translate(751,789)" d="m0 0h1v8h-1v8l2 1v2l3 1v7l-2 2h-3l2 3 1 3 6 2 1-3v-7l2-8v-16h3v-2h2l1 32-4 6-2 1h-8l-6-5-1-2v-32z" fill="#E2EAEC"/>
<path transform="translate(576,545)" d="m0 0h5v2l4 1v2h2v2h5l3 3 5 2 7-2 7 15-2 2-2-1-1 2-5-1-8-8-3-2v-2l-3 1-1 1-4 3-9-18z" fill="#213244"/>
<path transform="translate(387,591)" d="m0 0h6l2 10-4 7-2 6-5 2h-14l2-2 3-7 3-1v-2h2l2-6 3-6z" fill="#2F6588"/>
<path transform="translate(478,210)" d="m0 0h6l4 3-16 2v-2l-2 2-17 4-5 3h-9l-12 3-5 4-12 4-4 3-6 1-1 3-7 2-2 3-7 2-2-2 14-8 25-12 24-8 22-5z" fill="#3D708F"/>
<path transform="translate(367,614)" d="m0 0 1 2h150v1l-6 1h-49v1l-13 1h-16l-6-1-4 1h-8l-16-2h-16l-19-1z" fill="#203F57"/>
<path transform="translate(364,576)" d="m0 0 3 1 2 3 1 10-2 6 1 2-2 5-2 2 2 9-2 5 3 1h-7l1-2-2-1-1 2v-2h-2l-3-5 1-4 4-5 1-4-1-3 1-8h2v-2l4-3v-4h-2z" fill="#213244"/>
<path transform="translate(455,638)" d="m0 0h41l62 2-1 2-29 1-3 1-32-1-1-2h-39z" fill="#3F7696"/>
<path transform="translate(469,791)" d="m0 0h5l3 4 2 4 1-3h10v-2h2l1-2 1 27h-2v-2l-3-1-7-8-13-13z" fill="#DBE4E7"/>
<path transform="translate(449,591)" d="m0 0h68v1l-5 1-2 4-1 3-8 4-3-1v-3h-2v-2l-2-1-4-3v-2l-27 1-7 1-7-2z" fill="#3D8BAF"/>
<path transform="translate(412,544)" d="m0 0 4 1-2 3-1 1 3 1-2 2-1 4h-3l-1 4h7l2 4 4 2-25 2 2-6 8-14 2-3z" fill="#E1E9EB"/>
<path transform="translate(460,791)" d="m0 0h5v4l-1 1 7 3v5l3 1-3 4v2l-7 7-4-4v15h-1v-32z" fill="#172132"/>
<path transform="translate(546,803)" d="m0 0h16l3 4v7l-2 2h-17z" fill="#E1E8EA"/>
<path transform="translate(454,315)" d="m0 0 7 2v2l11-3 5 1 4 2 6 2v2h3 2l-1 5-3 3-4-2 1-5-3 1-8-3h-5l-4 4-2-1-1 2-2-1-2 3-5-10z" fill="#3E85A9"/>
<path transform="translate(329,804)" d="m0 0h14l4 4v6l-4 3h-14z" fill="#C3D0D2"/>
<path transform="translate(440,480)" d="m0 0h3l2 4-9 15-9 1-3-5 1-6h2l1-2 7-1 2-5z" fill="#234864"/>
<path transform="translate(384,634)" d="m0 0h13v2l3 1v1l-29 1-11 2-5 2-2 7 5 7 2 2-4-1-5-5-2-3 1-7 5-5 3-2 10-1h14z" fill="#1F3A50"/>
<path transform="translate(445,481)" d="m0 0h3l5 11 2 5v4h-2l-1-2-2 1-4-4-4 3h-2l-1 3h-3l-2-2 8-13z" fill="#E9EEEE"/>
<path transform="translate(338,278)" d="m0 0v3l-3 6-3 2h-2l1 3-3 1v2h-2l-1 3-4 1-3 9-2 3h-2l-1 4-4 8-4 5-1 2h-2l-1 5h-3l1-5 7-11 8-12 8-11 9-10z" fill="#3D708F"/>
<path transform="translate(577,216)" d="m0 0 7 1 28 10 17 8-1 3-10-2-3-4v-2l-7 1-10-3-3-3-11-4-4-2z" fill="#347BA0"/>
<path transform="translate(381,543)" d="m0 0 3 1-1 5-4 8h-2v2h-2l1 8 1 6-3 1v-2h-5l-5 3-1-2 13-22z" fill="#1F3043"/>
<path transform="translate(471,815)" d="m0 0 7 6 10 10 6 7 1 4h-2l-2-4h-3l-5-6-3-2v-2l-4 2-2 5h-2z" fill="#E1E8EA"/>
<path transform="translate(404,802)" d="m0 0h5l5 4v9l1 4-4 1-5-3-2-4v-5h-2v-4h2z" fill="#C1CECF"/>
<path transform="translate(478,210)" d="m0 0h6l4 3-16 2v-2l-2 2-17 4-5 3-7-1 1-2 10-4z" fill="#387699"/>
<path transform="translate(297,335)" d="m0 0 3 1-2 7h-2l-2 12h-2l-1 5-2 2-1 5-1-3h-2l-1-4 9-19z" fill="#34698A"/>
<path transform="translate(751,789)" d="m0 0h1v8h-1v8l2 1v2l3 1v7l-2 2h-5l-1 4v-32z" fill="#E2E9EB"/>
<path transform="translate(547,827)" d="m0 0h9l7 11 2 5-12-6-1-2-2 1-2-1v6h-1z" fill="#E5EBEC"/>
<path transform="translate(330,295)" d="m0 0 3 1-1 2h-2l-2 6-4 8h-2l-1 5-10 13-2 4h-2l-1 6-2 1 1-4 2-5 10-14 6-14 2-3v-2h3z" fill="#3F85A9"/>
<path transform="translate(517,208)" d="m0 0h10l25 2v1h-5v2l-5 1-2 1-24-4z" fill="#3D81A5"/>
<path transform="translate(505,592)" d="m0 0h7l-1 4-2 4-8 4-3-1v-3h-2v-2l-2-1 2-2 7-1z" fill="#337BA1"/>
<path transform="translate(557,610)" d="m0 0 5 2 1 3-6 3-32-1v-1l28-3z" fill="#22455F"/>
<path transform="translate(625,808)" d="m0 0 2 1 6 13v2h-13l3-10z" fill="#D6DFE1"/>
<path transform="translate(329,804)" d="m0 0h12l-4 2-4 1-3-1 1 7 2-1h11v-5l3 1v6l-4 3h-14z" fill="#E6EBED"/>
<path transform="translate(267,809)" d="m0 0 3 3 4 9v2l-2 1h-10l1-6z" fill="#D1DDE0"/>
<path transform="translate(342,355)" d="m0 0 8 6 3 1h7l7-4h3l-2 3-1 5-4 1h-4l-9-1-4-2-2-2-1-4z" fill="#2D6182"/>
<path transform="translate(356,263)" d="m0 0 1 2 6-1-2 5-7 6-4 5-5 3-7 8h-4v-2l7-4 3-4-1-2h4l1-3h2v-2l3-1-2-2h3v-3h4v-2h-3z" fill="#3E84A8"/>
<path transform="translate(556,790)" d="m0 0h9l5 2 5 1 2 2 1 6v10h-1l-2-9-5-6-6-3-24-1v-1z" fill="#DBE5E9"/>
<path transform="translate(425,590)" d="m0 0h14l-2 2-16 1-5 2h-8l-8-2-2-2z" fill="#3D86AA"/>
<path transform="translate(552,183)" d="m0 0 7 2v2l5 2v2l-18-1-1-3-3-1 3-1z" fill="#244B68"/>
<path transform="translate(354,264)" d="m0 0 1 2h3v2h-4v5l-4 1v2l-3 3-8-1 5-6z" fill="#367A9F"/>
<path transform="translate(528,180)" d="m0 0h19l8 1-3 1v2l-7 1-5 1-1-2-14-2z" fill="#214159"/>
<path transform="translate(361,441)" d="m0 0 5 2 1-2 1 3-2 4-2-1-2 5h-2v2l-4-1v-9z" fill="#37769A"/>
<path transform="translate(455,638)" d="m0 0h41v1l-8 1-35 1z" fill="#3E7090"/>
<path transform="translate(381,543)" d="m0 0 3 1-1 5-4 8h-2v2h-2l-1 6-1-2-2-1 3-7 6-11z" fill="#1B2C3E"/>
<path transform="translate(444,217)" d="m0 0 3 1-8 4-12 3-5 4-9 3-3-1 3-3 21-8z" fill="#3D7191"/>
<path transform="translate(620,640)" d="m0 0h2v2l4 1 6 8 3 11-1 1h-9l4-1v-8l-3-6-6-6z" fill="#1F384D"/>
<path transform="translate(363,574)" d="m0 0h3l-1 3-1 2h2l1 4-3 3h-2v2l-6 1-1-2 7-12z" fill="#182537"/>
<path transform="translate(699,288)" d="m0 0 6 2v2l4-1 5 12 2 2 1 4v3l-8-11v-2h-2l-8-10z" fill="#203549"/>
<path transform="translate(393,240)" d="m0 0h6l-2 4-10 5-9 1-4 2-1-2 7-4 7-1 4-2v-2z" fill="#377A9E"/>
<path transform="translate(385,790)" d="m0 0h1l1 34 4 9 4 5-2 2-2-4-4-1-1-4v-2l-2-1z" fill="#E4EAEB"/>
<path transform="translate(425,504)" d="m0 0 2 2-2 7 1 3-3 6-4 3-3-5 4-4-2-1 1-2 2 1 1-4 2-5z" fill="#234965"/>
<path transform="translate(662,323)" d="m0 0 4 1 4 4h12l4 3h-6l-1 2h-2v2l-3 1-6-7-6-5z" fill="#376D8E"/>
<path transform="translate(695,595)" d="m0 0h1v6l3 1 1 5 3 1 2 5 2 7 1 5h-2l-6-13-6-12z" fill="#0B182C"/>
<path transform="translate(496,186)" d="m0 0h14l3 2v2l-9 1h-7l-2-4z" fill="#1F3B51"/>
<path transform="translate(378,423)" d="m0 0 1 2-10 17-3 1-4-1-3-3 2-2h4l2 2 2-1v-6h2l1-2 4-5z" fill="#306688"/>
<path transform="translate(552,227)" d="m0 0h7l3 2 4 1-1 3-5-1v2h-5l-5-3z" fill="#60A8C3"/>
<path transform="translate(460,791)" d="m0 0h5l-1 3h-1l-2 20-1 15h-1v-32z" fill="#1C3A53"/>
<path transform="translate(402,639)" d="m0 0h51l-2 2-11 1-3-1-35-1z" fill="#3F7696"/>
<path transform="translate(338,278)" d="m0 0v3l-3 6-3 2h-2l1 3-3 1v2h-2l-1 3-4 1v2l-2-1 8-10 5-6 5-5z" fill="#3E7191"/>
<path transform="translate(621,790)" d="m0 0 1 3-9 19-6 13-1-2 1-7h2l2-7z" fill="#E5EAEB"/>
<path transform="translate(276,799)" d="m0 0 4 2 4 7 1 6h2l1 3-3 3-9-19z" fill="#E3E9EB"/>
<path transform="translate(576,545)" d="m0 0h5v2h2l-1 5 5 9-1 4-3-4-7-14z" fill="#1B2B3E"/>
<path transform="translate(322,616)" d="m0 0 4 4h3l2 1 1 12h-2l-6-9-2-5z" fill="#D9E1E3"/>
<path transform="translate(491,796)" d="m0 0h1l2 23h-2v-2l-3-1-5-6 1-3 4 4 1-3z" fill="#E8EDED"/>
<path transform="translate(262,792)" d="m0 0 1 2-12 26-3 4 1-5 5-11 4-12z" fill="#E1E7E8"/>
<path transform="translate(280,544)" d="m0 0 2 4 3 4 2 7 2 2 1 8h2l1 3-5-2-2-10h-2l-4-11zm8 28 3 1-2 2z" fill="#213143"/>
<path transform="translate(501,591)" d="m0 0h16v1l-12 1-5 3h-7l-3-2v-2z" fill="#3E84A8"/>
<path transform="translate(445,481)" d="m0 0h3l3 9-3-1-1 2-4 2-2-4z" fill="#D8E4E6"/>
<path transform="translate(637,398)" d="m0 0 2 1v21l-2 7-2-1 2-20-1-7z" fill="#285473"/>
<path transform="translate(612,228)" d="m0 0 9 3 8 4-1 3-10-2-3-4v-2h-3z" fill="#36769A"/>
<path transform="translate(478,210)" d="m0 0h6l4 3-16 2v-2l-11 1v-1z" fill="#37779A"/>
<path transform="translate(319,526)" d="m0 0 1 3-5 9h-7l1-6 5-1 1 1 1-4z" fill="#2D5F7F"/>
<path transform="translate(762,321)" d="m0 0 2 2 3 6 5 6-1 3-3 1-7-13z" fill="#AABFC6"/>
<path transform="translate(735,808)" d="m0 0h1l1 14 3 9 5 7-3 1-6-8-1-7z" fill="#E1E8E9"/>
<path transform="translate(431,796)" d="m0 0h1l1 12 1 2-1 14-2 4z" fill="#E5ECEE"/>
<path transform="translate(635,800)" d="m0 0 3 3 5 10 4 10 2 1v4l-3-1-11-25z" fill="#D8E0E3"/>
<path transform="translate(456,571)" d="m0 0h7v3h5l1 4-4-2h-8l-4-2v-2z" fill="#244B68"/>
<path transform="translate(267,406)" d="m0 0h3l-3 25h-1l-1-19z" fill="#1F3B51"/>
<path transform="translate(319,620)" d="m0 0 4 2 7 9v2l3-1-1 3-4-1-2-3h-3v-3l-3-4z" fill="#0C192E"/>
<path transform="translate(483,828)" d="m0 0 4 2 7 8 1 4h-2l-2-4h-3l-5-6-2-1v-2z" fill="#D6E0E4"/>
<path transform="translate(365,430)" d="m0 0h3l1 2 3 2-2 1-1 4-3 1-1-3-2-1v-5z" fill="#33799F"/>
<path transform="translate(331,245)" d="m0 0 2 1-5 5-3 1v2h-2v2l-4 4v3l-2 1-1-5 11-11z" fill="#203C53"/>
<path transform="translate(577,216)" d="m0 0 7 1 12 4v2l-9-1-7-2v-2z" fill="#39789B"/>
<path transform="translate(572,793)" d="m0 0 5 2 1 6v10h-1l-2-9-5-6 1-2z" fill="#E3EAEC"/>
<path transform="translate(368,357)" d="m0 0 2 1-2 3-1 5-4 1-4-2 1-3 7-4z" fill="#306586"/>
<path transform="translate(571,822)" d="m0 0 2 1-2 3 6 7 1 5h-2l-9-13z" fill="#E1E7E9"/>
<path transform="translate(472,560)" d="m0 0 1 2h10l-3 2-11 2-3-1v-2l6-1z" fill="#D2DDE1"/>
<path transform="translate(271,400)" d="m0 0h1v18l-3 1v-11z" fill="#254F6D"/>
<path transform="translate(369,253)" d="m0 0 1 2-1 2h-2v2h-2l-2 5-6 1v-3z" fill="#397A9D"/>
<path transform="translate(624,818)" d="m0 0 1 4 7-1 1 3h-13l1-5z" fill="#D0DCDF"/>
<path transform="translate(669,547)" d="m0 0h2l3 10 1 4-2 1-6-12 2-1z" fill="#1D2C3E"/>
<path transform="translate(498,398)" d="m0 0 2 2v4l3 1 5 6-1 4-4-4-3-4-2-4z" fill="#28526F"/>
<path transform="translate(703,395)" d="m0 0h1l2 8v22h-1l-1-17h-1z" fill="#214056"/>
<path transform="translate(642,242)" d="m0 0 5 1 3 2v2h4l1 2 4 1v2h2l1 4-9-6-11-7z" fill="#21415A"/>
<path transform="translate(297,335)" d="m0 0 3 1-2 7h-2l-2 6-2 1 1-5 3-9z" fill="#2F6588"/>
<path transform="translate(351,823)" d="m0 0h2l2 6 5 5-4 1-7-9z" fill="#DBE4E6"/>
<path transform="translate(393,240)" d="m0 0h6l-2 4-5 3h-4v-2l3-3z" fill="#337BA1"/>
<path transform="translate(401,627)" d="m0 0h11l1 2-3 2h-7l-3-1z" fill="#1F3B51"/>
<path transform="translate(552,600)" d="m0 0 4 1 3 4-1 1 4 3v3l-4-2-6-7z" fill="#C4D2D6"/>
<path transform="translate(590,213)" d="m0 0 9 1 2 2-3 2-7-1-2-2z" fill="#223244"/>
<path transform="translate(329,828)" d="m0 0h5l-2 1v9l-1 5-2-3z" fill="#BED2DA"/>
<path transform="translate(534,585)" d="m0 0 4 2 8 7-1 3-8-7z" fill="#1D354B"/>
<path transform="translate(700,249)" d="m0 0 4 2 6 6-1 2h-3l-2-4-3-3-3 1z" fill="#1A2737"/>
<path transform="translate(338,830)" d="m0 0 5 5 3 6-1 3-1-3-3-1-2-3z" fill="#DFE6E8"/>
<path transform="translate(681,649)" d="m0 0 2 1-3 5-4 2-5 5-3-1 5-5z" fill="#0E1A2D"/>
<path transform="translate(730,280)" d="m0 0 3 1 3 5-4 2h-3v-7z" fill="#1F2F41"/>
<path transform="translate(469,791)" d="m0 0h5l1 4v2 3l-6-5z" fill="#E0E7E8"/>
<path transform="translate(699,288)" d="m0 0 6 2 4 7v2h-2l-8-10z" fill="#1D344A"/>
<path transform="translate(669,257)" d="m0 0 3 1v2l4 2 1 3-5-1-1-3h-3z" fill="#1B2A3D"/>
<path transform="translate(389,240)" d="m0 0h2l1 3-5 3-4 1-2-2z" fill="#3E7191"/>
<path transform="translate(296,577)" d="m0 0 5 4v2l3 1-2 3-1-2-4 1-1-5z" fill="#C4D0D1"/>
<path transform="translate(293,341)" d="m0 0h2l-2 8 2 3-2 3v-3l-5 2 2-6z" fill="#3E7090"/>
<path transform="translate(517,208)" d="m0 0h10l3 3-6 1-8-1z" fill="#34789D"/>
<path transform="translate(749,818)" d="m0 0h2l2 3 1 3 2 2-1 2-4-2-2-2z" fill="#E8EEEF"/>
<path transform="translate(526,408)" d="m0 0 3 1 6 11-1 2-3-2-2-5-2-3z" fill="#264E6B"/>
<path transform="translate(713,307)" d="m0 0 5 5 3 6-4 1-2-3z" fill="#3B6E8E"/>
<path transform="translate(453,626)" d="m0 0h7l1 2-1 2h-7l-4-3z" fill="#223244"/>
<path transform="translate(703,294)" d="m0 0 4 3v2h2l4 7-5-2-5-8z" fill="#396E8E"/>
<path transform="translate(648,707)" d="m0 0 2 1-3 4-2 2h-3v-2l-2-1z" fill="#6AA1B9"/>
<path transform="translate(435,490)" d="m0 0 4 1-1 4-1 2h-4v-4h2z" fill="#1F3C53"/>
<path transform="translate(503,367)" d="m0 0 3 1 4 8-2 3-3-5-1-4z" fill="#34698A"/>
<path transform="translate(720,312)" d="m0 0 4 2 1 5-3 1-3-4z" fill="#1F3245"/>
<path transform="translate(630,833)" d="m0 0h6l2 3v5l-4-5v-2l-2 1h-8v-1z" fill="#E1E8EA"/>
<path transform="translate(688,589)" d="m0 0h3v2l3 1 1 5-2 2z" fill="#14253A"/>
<path transform="translate(395,244)" d="m0 0m-1 1 1 3-7 3-4-1z" fill="#3F85A9"/>
<path transform="translate(616,226)" d="m0 0 9 5v3l-11-5 2-1z" fill="#204058"/>
<path transform="translate(598,223)" d="m0 0 6 1 8 3-4 2-5-1-1-2-4-2z" fill="#3E7190"/>
<path transform="translate(447,217)" d="m0 0 4 1-1 3-5 1-4-2z" fill="#347CA1"/>
<path transform="translate(546,803)" d="m0 0h14v1l-5 1h-7l-1 3z" fill="#E9EEEF"/>
<path transform="translate(456,733)" d="m0 0 12 2v2h-7l-5-1z" fill="#162A40"/>
<path transform="translate(692,678)" d="m0 0m-1 1m-2 1 2 1v3h-2v2l3-1v2h-4l-3-4z" fill="#5C9EBA"/>
<path transform="translate(765,328)" d="m0 0 5 4 2 5-4 2-2-7z" fill="#ACBBC2"/>
<path transform="translate(315,260)" d="m0 0 2 1v2l-5 4-2 4-2-1 2-5z" fill="#1F394E"/>
<path transform="translate(761,825)" d="m0 0 3 1-1 3h-8v-3h5z" fill="#E0E7E8"/>
<path transform="translate(675,824)" d="m0 0h3l-2 4-3 5-1 4-1-1 1-7z" fill="#EEF2F0"/>
<path transform="translate(411,722)" d="m0 0 7 2 1 2h-5v2h-2l-2-4z" fill="#B0C1C7"/>
<path transform="translate(389,532)" d="m0 0 2 1-2 3h-2l-2 6-2-1 2-6 1-2z" fill="#19293C"/>
<path transform="translate(423,516)" d="m0 0h2l-2 6-4 3-1-4h2l1-4z" fill="#21415A"/>
<path transform="translate(550,496)" d="m0 0 3 1 1 2h2v5l-4-1-2-3z" fill="#203E55"/>
<path transform="translate(544,487)" d="m0 0 5 2 2 6-3 1z" fill="#213D54"/>
<path transform="translate(378,423)" d="m0 0 1 2-6 9-4-2h2l1-2 4-5z" fill="#316484"/>
<path transform="translate(728,328)" d="m0 0 3 3 3 5v2l2 1-1 4-5-9z" fill="#22435D"/>
<path transform="translate(716,317)" d="m0 0 1 2 2 1h-2v2l-8 1 2-5 5 1z" fill="#3E7393"/>
</svg>
